<svg width="41" height="41" viewBox="0 0 41 41" fill="none" xmlns="http://www.w3.org/2000/svg">
<g clip-path="url(#clip0_22_405)">
<path fill-rule="evenodd" clip-rule="evenodd" d="M4.46558 9.26942C4.65954 8.80112 4.98803 8.40087 5.40949 8.11929C5.83095 7.83771 6.32646 7.68744 6.83333 7.6875H23.9167C27.3147 7.6875 30.5737 9.03738 32.9765 11.4402C35.3793 13.843 36.7292 17.1019 36.7292 20.5C36.7292 23.8981 35.3793 27.157 32.9765 29.5598C30.5737 31.9626 27.3147 33.3125 23.9167 33.3125H8.54166C7.86205 33.3125 7.21026 33.0425 6.7297 32.562C6.24914 32.0814 5.97916 31.4296 5.97916 30.75C5.97916 30.0704 6.24914 29.4186 6.7297 28.938C7.21026 28.4575 7.86205 28.1875 8.54166 28.1875H23.9167C25.9555 28.1875 27.9109 27.3776 29.3525 25.9359C30.7942 24.4942 31.6042 22.5389 31.6042 20.5C31.6042 18.4611 30.7942 16.5058 29.3525 15.0641C27.9109 13.6224 25.9555 12.8125 23.9167 12.8125H13.0192L14.625 14.4183C15.0916 14.9018 15.3496 15.5493 15.3434 16.2211C15.3373 16.893 15.0675 17.5356 14.5921 18.0105C14.1168 18.4854 13.474 18.7546 12.8021 18.7601C12.1302 18.7656 11.483 18.507 11 18.04L5.02079 12.0608C4.6627 11.7025 4.41883 11.2461 4.32001 10.7493C4.22119 10.2525 4.27185 9.73748 4.46558 9.26942Z" fill="black"/>
</g>
<defs>
<clipPath id="clip0_22_405">
<rect width="41" height="41" fill="white"/>
</clipPath>
</defs>
</svg>
