<svg width="271" height="110" viewBox="0 0 271 110" fill="none" xmlns="http://www.w3.org/2000/svg">
<g clip-path="url(#clip0_73_291)">
<path d="M129.32 70.6462V26.8277H138.717V61.2565H155.945V70.6462H129.32Z" fill="#3584C5"/>
<path d="M169.231 36.0935C170.569 36.0935 171.678 35.6435 172.566 34.7502C173.453 33.8504 173.897 32.7354 173.897 31.3986C173.897 30.0619 173.44 28.973 172.533 28.0666C171.626 27.1602 170.51 26.7038 169.199 26.7038C167.887 26.7038 166.732 27.1602 165.818 28.0666C164.898 28.973 164.441 30.088 164.441 31.3986C164.441 32.7093 164.898 33.8504 165.818 34.7502C166.738 35.6501 167.874 36.0935 169.231 36.0935Z" fill="#6DBD8D"/>
<path d="M173.865 39.3472H164.467V70.6462H173.865V39.3472Z" fill="#3584C5"/>
<path d="M201.175 39.3473H210.572V70.9592C210.572 73.3392 210.095 75.4715 209.149 77.3624C208.196 79.2534 206.898 80.864 205.247 82.2007C203.596 83.5375 201.703 84.5547 199.563 85.2524C197.422 85.9501 195.164 86.3022 192.783 86.3022C190.57 86.3022 188.45 85.8784 186.427 85.0372C184.404 84.1895 182.596 83.0158 181.01 81.5161C179.424 80.0163 178.171 78.2688 177.251 76.2865L185.833 72.4068C186.27 73.3457 186.844 74.1412 187.555 74.7998C188.267 75.4584 189.069 75.9605 189.97 76.3191C190.871 76.6712 191.81 76.8538 192.789 76.8538C193.872 76.8538 194.916 76.7365 195.921 76.5082C196.926 76.28 197.82 75.9214 198.617 75.4454C199.413 74.9694 200.039 74.3564 200.496 73.6131C200.953 72.8697 201.188 71.9894 201.188 70.9657V67.901C200.248 68.9639 199.139 69.8246 197.853 70.4832C196.568 71.1418 195.093 71.4678 193.422 71.4678C191.145 71.4678 189.017 71.0374 187.033 70.1832C185.05 69.329 183.301 68.1423 181.787 66.6295C180.273 65.1167 179.085 63.3692 178.23 61.3869C177.375 59.4047 176.945 57.2789 176.945 55.0032C176.945 52.7276 177.375 50.6018 178.23 48.6196C179.085 46.6373 180.273 44.8898 181.787 43.377C183.301 41.8642 185.05 40.6775 187.033 39.8233C189.017 38.9691 191.145 38.5387 193.422 38.5387C195.093 38.5387 196.568 38.8647 197.853 39.5233C199.139 40.1819 200.248 41.0426 201.188 42.1055V39.3538L201.175 39.3473ZM193.533 62.4433C194.825 62.4433 196.006 62.1107 197.07 61.4391C198.134 60.774 198.982 59.8741 199.609 58.7461C200.235 57.618 200.548 56.3661 200.548 54.9902C200.548 53.6144 200.235 52.3624 199.609 51.2343C198.982 50.1063 198.134 49.2129 197.07 48.5413C196.006 47.8697 194.825 47.5371 193.533 47.5371C192.241 47.5371 191.092 47.8697 190.042 48.5413C188.991 49.2129 188.149 50.1063 187.523 51.2343C186.896 52.3624 186.583 53.6144 186.583 54.9902C186.583 56.3661 186.896 57.618 187.523 58.7461C188.149 59.8741 188.991 60.7675 190.042 61.4391C191.099 62.1042 192.261 62.4433 193.533 62.4433Z" fill="#3584C5"/>
<path d="M247.507 50.6475V70.6462H238.11V53.2753C238.11 52.2972 237.869 51.4039 237.392 50.6018C236.91 49.7998 236.277 49.1608 235.48 48.6913C234.684 48.2218 233.797 47.9871 232.818 47.9871C231.839 47.9871 230.945 48.2218 230.142 48.6913C229.34 49.1608 228.7 49.7998 228.23 50.6018C227.76 51.4039 227.526 52.2972 227.526 53.2753V70.6462H218.129L218.096 23.6978H227.493L227.526 41.3165C228.57 40.4166 229.757 39.7189 231.095 39.2168C232.433 38.7148 233.842 38.467 235.324 38.467C237.582 38.467 239.624 39.0147 241.465 40.1102C243.305 41.2056 244.767 42.6728 245.863 44.5051C246.959 46.3439 247.507 48.3848 247.507 50.641V50.6475Z" fill="#3584C5"/>
<path d="M271 48.7369H265.675V70.6462H256.278V48.7369H252.206V39.3473H256.278V29.5207H265.675V39.3473H271V48.7369Z" fill="#3584C5"/>
<path d="M86.5802 23.4901L55.0455 55L86.5802 86.5099L104.415 68.6892C111.983 61.1268 111.983 48.8683 104.415 41.3108L86.5802 23.4901Z" fill="#D0E3ED"/>
<path d="M23.511 23.4901L5.67623 41.3108C-1.89208 48.8732 -1.89208 61.1316 5.67623 68.6892L23.511 86.5099L55.0456 55L23.511 23.4901Z" fill="#D0E3ED"/>
<path d="M55.0456 55L23.5109 86.5099L41.3456 104.331C45.1298 108.112 50.0877 110 55.0456 110C60.0034 110 64.9613 108.112 68.7455 104.331L86.5802 86.5099L55.0456 55Z" fill="#6DBD8D"/>
<path d="M55.0456 0C50.0877 0 45.1298 1.88816 41.3456 5.66935L23.5109 23.4901L55.0456 55L86.5802 23.4901L68.7455 5.66935C64.9613 1.88816 60.0034 0 55.0456 0Z" fill="#3584C5"/>
</g>
<defs>
<clipPath id="clip0_73_291">
<rect width="271" height="110" fill="white"/>
</clipPath>
</defs>
</svg>
